<svg width="61" height="47" viewBox="0 0 61 47" fill="none" xmlns="http://www.w3.org/2000/svg">
<path d="M25.3731 13.6866C25.3731 20.6932 19.6932 26.3731 12.6866 26.3731C5.67997 26.3731 0 20.6932 0 13.6866C0 6.67997 5.67997 1 12.6866 1C19.6932 1 25.3731 6.67997 25.3731 13.6866Z" fill="#003CFF"/>
<g filter="url(#filter0_b_1504_67572)">
<path d="M33.0973 2.02782C35.0374 0.657394 37.7984 0.657392 39.7385 2.02782L58.0146 14.9377C59.2697 15.8243 60 17.1645 60 18.5811V42.0004C60 44.5803 57.6244 46.6716 54.694 46.6716H47.6194C44.689 46.6716 42.3134 44.5803 42.3134 42.0004V30.7457C42.3134 29.8857 41.5216 29.1886 40.5448 29.1886H32.291C31.3142 29.1886 30.5224 29.8857 30.5224 30.7457V42.0004C30.5224 44.5803 28.1468 46.6716 25.2164 46.6716H18.1418C15.2114 46.6716 12.8358 44.5803 12.8358 42.0004V18.5811C12.8358 17.1645 13.5661 15.8243 14.8212 14.9377L33.0973 2.02782Z" fill="url(#paint0_linear_1504_67572)" fill-opacity="0.3"/>
</g>
<g filter="url(#filter1_b_1504_67572)">
<path fill-rule="evenodd" clip-rule="evenodd" d="M32.9252 1.78369C34.9685 0.340335 37.8675 0.340332 39.9108 1.78369L58.1869 14.6936C59.5133 15.6306 60.2985 17.0579 60.2985 18.5808V42.0001C60.2985 44.7794 57.7525 46.9698 54.6941 46.9698H47.6195C44.5611 46.9698 42.015 44.7794 42.015 42.0001V30.7454C42.015 30.0849 41.3936 29.4868 40.5448 29.4868H32.2911C31.4423 29.4868 30.8209 30.0849 30.8209 30.7454V42.0001C30.8209 44.7794 28.2749 46.9698 25.2165 46.9698H18.1418C15.0834 46.9698 12.5374 44.7794 12.5374 42.0001V18.5808C12.5374 17.0579 13.3226 15.6306 14.649 14.6936L32.9252 1.78369ZM39.7385 2.0275C37.7985 0.657071 35.0374 0.657074 33.0974 2.0275L14.8213 14.9374C13.5661 15.824 12.8359 17.1641 12.8359 18.5808V42.0001C12.8359 44.5799 15.2114 46.6713 18.1418 46.6713H25.2165C28.1469 46.6713 30.5224 44.5799 30.5224 42.0001V30.7454C30.5224 29.8854 31.3143 29.1883 32.2911 29.1883H40.5448C41.5216 29.1883 42.3135 29.8854 42.3135 30.7454V42.0001C42.3135 44.5799 44.689 46.6713 47.6195 46.6713H54.6941C57.6245 46.6713 60 44.5799 60 42.0001V18.5808C60 17.1641 59.2698 15.824 58.0147 14.9374L39.7385 2.0275Z" fill="url(#paint1_linear_1504_67572)"/>
<path fill-rule="evenodd" clip-rule="evenodd" d="M32.9252 1.78369C34.9685 0.340335 37.8675 0.340332 39.9108 1.78369L58.1869 14.6936C59.5133 15.6306 60.2985 17.0579 60.2985 18.5808V42.0001C60.2985 44.7794 57.7525 46.9698 54.6941 46.9698H47.6195C44.5611 46.9698 42.015 44.7794 42.015 42.0001V30.7454C42.015 30.0849 41.3936 29.4868 40.5448 29.4868H32.2911C31.4423 29.4868 30.8209 30.0849 30.8209 30.7454V42.0001C30.8209 44.7794 28.2749 46.9698 25.2165 46.9698H18.1418C15.0834 46.9698 12.5374 44.7794 12.5374 42.0001V18.5808C12.5374 17.0579 13.3226 15.6306 14.649 14.6936L32.9252 1.78369ZM39.7385 2.0275C37.7985 0.657071 35.0374 0.657074 33.0974 2.0275L14.8213 14.9374C13.5661 15.824 12.8359 17.1641 12.8359 18.5808V42.0001C12.8359 44.5799 15.2114 46.6713 18.1418 46.6713H25.2165C28.1469 46.6713 30.5224 44.5799 30.5224 42.0001V30.7454C30.5224 29.8854 31.3143 29.1883 32.2911 29.1883H40.5448C41.5216 29.1883 42.3135 29.8854 42.3135 30.7454V42.0001C42.3135 44.5799 44.689 46.6713 47.6195 46.6713H54.6941C57.6245 46.6713 60 44.5799 60 42.0001V18.5808C60 17.1641 59.2698 15.824 58.0147 14.9374L39.7385 2.0275Z" fill="url(#paint2_radial_1504_67572)"/>
</g>
<defs>
<filter id="filter0_b_1504_67572" x="-17.1642" y="-29" width="107.164" height="105.672" filterUnits="userSpaceOnUse" color-interpolation-filters="sRGB">
<feFlood flood-opacity="0" result="BackgroundImageFix"/>
<feGaussianBlur in="BackgroundImageFix" stdDeviation="15"/>
<feComposite in2="SourceAlpha" operator="in" result="effect1_backgroundBlur_1504_67572"/>
<feBlend mode="normal" in="SourceGraphic" in2="effect1_backgroundBlur_1504_67572" result="shape"/>
</filter>
<filter id="filter1_b_1504_67572" x="-17.4626" y="-29.2988" width="107.761" height="106.269" filterUnits="userSpaceOnUse" color-interpolation-filters="sRGB">
<feFlood flood-opacity="0" result="BackgroundImageFix"/>
<feGaussianBlur in="BackgroundImageFix" stdDeviation="15"/>
<feComposite in2="SourceAlpha" operator="in" result="effect1_backgroundBlur_1504_67572"/>
<feBlend mode="normal" in="SourceGraphic" in2="effect1_backgroundBlur_1504_67572" result="shape"/>
</filter>
<linearGradient id="paint0_linear_1504_67572" x1="17.8829" y1="5.21376" x2="68.0853" y2="32.0574" gradientUnits="userSpaceOnUse">
<stop stop-color="#5A81FF" stop-opacity="0.9"/>
<stop offset="0.447036" stop-color="#567DFF" stop-opacity="0.955296"/>
<stop offset="1" stop-color="#4E78FF" stop-opacity="0.9"/>
</linearGradient>
<linearGradient id="paint1_linear_1504_67572" x1="19.4107" y1="-0.95128" x2="63.445" y2="25.5881" gradientUnits="userSpaceOnUse">
<stop offset="0.188941" stop-color="#E7F0FF" stop-opacity="0.523483"/>
<stop offset="0.526042" stop-color="#88A4FF"/>
<stop offset="1" stop-color="#B4D2FF" stop-opacity="0.1"/>
</linearGradient>
<radialGradient id="paint2_radial_1504_67572" cx="0" cy="0" r="1" gradientUnits="userSpaceOnUse" gradientTransform="translate(19.6751 45.4551) rotate(-50.0847) scale(36.8052 60.5485)">
<stop stop-color="white"/>
<stop offset="1" stop-color="white" stop-opacity="0"/>
</radialGradient>
</defs>
</svg>
