<svg width="21" height="16" viewBox="0 0 21 16" fill="none" xmlns="http://www.w3.org/2000/svg">
<path d="M20.0237 6C20.0237 11.5228 15.5465 16 10.0237 16C4.50083 16 0.023682 11.5228 0.0236825 6L0.023683 -1.74846e-06L6.02368 -1.22392e-06L6.02368 6C6.02368 8.20914 7.81454 10 10.0237 10C12.2328 10 14.0237 8.20914 14.0237 6L14.0237 5L20.0237 5L20.0237 6Z" fill="#13C2C2"/>
<path d="M20.0237 6C20.0237 11.5228 15.5465 16 10.0237 16C7.22629 16 4.69717 14.8514 2.88225 13C1.114 11.1962 0.0236823 8.72545 0.0236825 6C0.0236825 6 -0.976318 10 10.0237 10C12.2328 10 14.0237 8.20914 14.0237 6L14.0237 -5.24537e-07L20.0237 0L20.0237 6Z" fill="#1869ED"/>
<path d="M13.0237 3C13.0237 4.65685 11.6805 6 10.0237 6L7.02368 6L7.02368 -5.24537e-07L13.0237 0L13.0237 3Z" fill="#FABE00"/>
</svg>
