<svg width="70" height="49" viewBox="0 0 70 49" fill="none" xmlns="http://www.w3.org/2000/svg">
<path d="M70 29.7046C70 34.496 65.8674 38.2424 61.099 37.7738L30.5584 34.7727C26.4075 34.3649 23.2433 30.8744 23.2433 26.7035L23.2433 11.4894C23.2433 7.28291 26.4602 3.77499 30.651 3.41163L61.1915 0.763602C65.9281 0.352916 70 4.08704 70 8.8414L70 29.7046Z" fill="#003CFF"/>
<g filter="url(#filter0_b_1504_67576)">
<path d="M0 19.2143C0 14.423 4.13263 10.6765 8.90104 11.1451L39.4416 14.1462C43.5925 14.5541 46.7568 18.0446 46.7568 22.2154V37.4295C46.7568 41.636 43.5398 45.144 39.349 45.5073L8.8085 48.1553C4.07191 48.566 0 44.8319 0 40.0775V19.2143Z" fill="url(#paint0_linear_1504_67576)" fill-opacity="0.3"/>
</g>
<g filter="url(#filter1_b_1504_67576)">
<path fill-rule="evenodd" clip-rule="evenodd" d="M39.4284 14.2807L8.88782 11.2796C4.19888 10.8188 0.135135 14.5028 0.135135 19.2143V40.0775C0.135135 44.7527 4.13918 48.4246 8.79683 48.0207L39.3374 45.3727C43.4583 45.0154 46.6216 41.5659 46.6216 37.4295V22.2154C46.6216 18.1141 43.5101 14.6818 39.4284 14.2807ZM8.90104 11.1451C4.13263 10.6765 0 14.423 0 19.2143V40.0775C0 44.8319 4.07191 48.566 8.8085 48.1553L39.349 45.5073C43.5398 45.144 46.7568 41.636 46.7568 37.4295V22.2154C46.7568 18.0446 43.5925 14.5541 39.4416 14.1462L8.90104 11.1451Z" fill="url(#paint1_linear_1504_67576)"/>
<path fill-rule="evenodd" clip-rule="evenodd" d="M39.4284 14.2807L8.88782 11.2796C4.19888 10.8188 0.135135 14.5028 0.135135 19.2143V40.0775C0.135135 44.7527 4.13918 48.4246 8.79683 48.0207L39.3374 45.3727C43.4583 45.0154 46.6216 41.5659 46.6216 37.4295V22.2154C46.6216 18.1141 43.5101 14.6818 39.4284 14.2807ZM8.90104 11.1451C4.13263 10.6765 0 14.423 0 19.2143V40.0775C0 44.8319 4.07191 48.566 8.8085 48.1553L39.349 45.5073C43.5398 45.144 46.7568 41.636 46.7568 37.4295V22.2154C46.7568 18.0446 43.5925 14.5541 39.4416 14.1462L8.90104 11.1451Z" fill="url(#paint2_radial_1504_67576)"/>
</g>
<defs>
<filter id="filter0_b_1504_67576" x="-30" y="-18.8945" width="106.757" height="97.0811" filterUnits="userSpaceOnUse" color-interpolation-filters="sRGB">
<feFlood flood-opacity="0" result="BackgroundImageFix"/>
<feGaussianBlur in="BackgroundImageFix" stdDeviation="15"/>
<feComposite in2="SourceAlpha" operator="in" result="effect1_backgroundBlur_1504_67576"/>
<feBlend mode="normal" in="SourceGraphic" in2="effect1_backgroundBlur_1504_67576" result="shape"/>
</filter>
<filter id="filter1_b_1504_67576" x="-30" y="-18.8945" width="106.757" height="97.0811" filterUnits="userSpaceOnUse" color-interpolation-filters="sRGB">
<feFlood flood-opacity="0" result="BackgroundImageFix"/>
<feGaussianBlur in="BackgroundImageFix" stdDeviation="15"/>
<feComposite in2="SourceAlpha" operator="in" result="effect1_backgroundBlur_1504_67576"/>
<feBlend mode="normal" in="SourceGraphic" in2="effect1_backgroundBlur_1504_67576" result="shape"/>
</filter>
<linearGradient id="paint0_linear_1504_67576" x1="5.00349" y1="14.5266" x2="49.8743" y2="43.8228" gradientUnits="userSpaceOnUse">
<stop stop-color="#5A81FF" stop-opacity="0.9"/>
<stop offset="0.447036" stop-color="#567DFF" stop-opacity="0.955296"/>
<stop offset="1" stop-color="#4E78FF" stop-opacity="0.9"/>
</linearGradient>
<linearGradient id="paint1_linear_1504_67576" x1="6.72883" y1="9.78116" x2="44.8393" y2="37.8388" gradientUnits="userSpaceOnUse">
<stop offset="0.188941" stop-color="#E7F0FF" stop-opacity="0.523483"/>
<stop offset="0.526042" stop-color="#88A4FF"/>
<stop offset="1" stop-color="#B4D2FF" stop-opacity="0.1"/>
</linearGradient>
<radialGradient id="paint2_radial_1504_67576" cx="0" cy="0" r="1" gradientUnits="userSpaceOnUse" gradientTransform="translate(6.98763 46.9723) rotate(-44.3789) scale(32.3473 54.0513)">
<stop stop-color="white"/>
<stop offset="1" stop-color="white" stop-opacity="0"/>
</radialGradient>
</defs>
</svg>
