<svg width="70" height="70" viewBox="0 0 70 70" fill="none" xmlns="http://www.w3.org/2000/svg">
<path d="M51.7369 51.1229C48.5262 54.3336 44.4356 56.5201 39.9822 57.4059C35.5288 58.2918 30.9128 57.8371 26.7178 56.0995C22.5229 54.3619 18.9374 51.4194 16.4147 47.644C13.8921 43.8686 12.5457 39.43 12.5457 34.8894C12.5457 30.3488 13.8921 25.9101 16.4147 22.1347C18.9374 18.3594 22.5229 15.4168 26.7178 13.6792C30.9128 11.9416 35.5288 11.4869 39.9822 12.3728C44.4356 13.2586 48.5262 15.4451 51.7369 18.6558L35.5034 34.8894L51.7369 51.1229Z" fill="#003CFF"/>
<g filter="url(#filter0_b_1504_67552)">
<path d="M11.375 10.842C16.1341 6.08292 22.1976 2.84192 28.7987 1.52888C35.3997 0.215848 42.2419 0.889744 48.46 3.46536C54.6781 6.04097 59.9928 10.4026 63.732 15.9987C67.4712 21.5949 69.467 28.1741 69.467 34.9045C69.467 41.6349 67.4712 48.2142 63.732 53.8103C59.9928 59.4064 54.6781 63.7681 48.46 66.3437C42.242 68.9193 35.3998 69.5932 28.7987 68.2802C22.1976 66.9671 16.1341 63.7261 11.375 58.967L35.4375 34.9045L11.375 10.842Z" fill="url(#paint0_linear_1504_67552)" fill-opacity="0.3"/>
</g>
<g filter="url(#filter1_b_1504_67552)">
<path fill-rule="evenodd" clip-rule="evenodd" d="M35.4375 34.9045L11.375 58.967C11.4134 59.0054 11.4519 59.0437 11.4904 59.0819C16.232 63.7783 22.2508 66.9777 28.7987 68.2802C35.3998 69.5932 42.242 68.9193 48.46 66.3437C54.6781 63.7681 59.9928 59.4064 63.732 53.8103C67.4712 48.2142 69.467 41.6349 69.467 34.9045C69.467 28.1741 67.4712 21.5949 63.732 15.9987C59.9928 10.4026 54.6781 6.04097 48.46 3.46536C42.2419 0.889744 35.3997 0.215848 28.7987 1.52888C22.2508 2.83133 16.232 6.03076 11.4904 10.7272C11.4519 10.7654 11.4134 10.8036 11.375 10.842L35.4375 34.9045ZM11.6055 10.8423L35.6678 34.9045L11.6055 58.9667C16.3243 63.6404 22.3142 66.8243 28.8304 68.1205C35.3999 69.4272 42.2094 68.7566 48.3977 66.1933C54.5861 63.63 59.8753 59.2892 63.5966 53.7199C67.3179 48.1505 69.3042 41.6027 69.3042 34.9045C69.3042 28.2063 67.3179 21.6585 63.5966 16.0892C59.8753 10.5199 54.586 6.17907 48.3977 3.61578C42.2094 1.05249 35.3999 0.38182 28.8304 1.68858C22.3142 2.98473 16.3243 6.16866 11.6055 10.8423Z" fill="url(#paint1_linear_1504_67552)"/>
<path fill-rule="evenodd" clip-rule="evenodd" d="M35.4375 34.9045L11.375 58.967C11.4134 59.0054 11.4519 59.0437 11.4904 59.0819C16.232 63.7783 22.2508 66.9777 28.7987 68.2802C35.3998 69.5932 42.242 68.9193 48.46 66.3437C54.6781 63.7681 59.9928 59.4064 63.732 53.8103C67.4712 48.2142 69.467 41.6349 69.467 34.9045C69.467 28.1741 67.4712 21.5949 63.732 15.9987C59.9928 10.4026 54.6781 6.04097 48.46 3.46536C42.2419 0.889744 35.3997 0.215848 28.7987 1.52888C22.2508 2.83133 16.232 6.03076 11.4904 10.7272C11.4519 10.7654 11.4134 10.8036 11.375 10.842L35.4375 34.9045ZM11.6055 10.8423L35.6678 34.9045L11.6055 58.9667C16.3243 63.6404 22.3142 66.8243 28.8304 68.1205C35.3999 69.4272 42.2094 68.7566 48.3977 66.1933C54.5861 63.63 59.8753 59.2892 63.5966 53.7199C67.3179 48.1505 69.3042 41.6027 69.3042 34.9045C69.3042 28.2063 67.3179 21.6585 63.5966 16.0892C59.8753 10.5199 54.586 6.17907 48.3977 3.61578C42.2094 1.05249 35.3999 0.38182 28.8304 1.68858C22.3142 2.98473 16.3243 6.16866 11.6055 10.8423Z" fill="url(#paint2_radial_1504_67552)"/>
</g>
<defs>
<filter id="filter0_b_1504_67552" x="-18.625" y="-29.125" width="118.092" height="128.059" filterUnits="userSpaceOnUse" color-interpolation-filters="sRGB">
<feFlood flood-opacity="0" result="BackgroundImageFix"/>
<feGaussianBlur in="BackgroundImageFix" stdDeviation="15"/>
<feComposite in2="SourceAlpha" operator="in" result="effect1_backgroundBlur_1504_67552"/>
<feBlend mode="normal" in="SourceGraphic" in2="effect1_backgroundBlur_1504_67552" result="shape"/>
</filter>
<filter id="filter1_b_1504_67552" x="-18.625" y="-29.125" width="118.092" height="128.059" filterUnits="userSpaceOnUse" color-interpolation-filters="sRGB">
<feFlood flood-opacity="0" result="BackgroundImageFix"/>
<feGaussianBlur in="BackgroundImageFix" stdDeviation="15"/>
<feComposite in2="SourceAlpha" operator="in" result="effect1_backgroundBlur_1504_67552"/>
<feBlend mode="normal" in="SourceGraphic" in2="effect1_backgroundBlur_1504_67552" result="shape"/>
</filter>
<linearGradient id="paint0_linear_1504_67552" x1="17.5915" y1="7.15426" x2="84.1117" y2="36.5535" gradientUnits="userSpaceOnUse">
<stop stop-color="#5A81FF" stop-opacity="0.9"/>
<stop offset="0.447036" stop-color="#567DFF" stop-opacity="0.955296"/>
<stop offset="1" stop-color="#4E78FF" stop-opacity="0.9"/>
</linearGradient>
<linearGradient id="paint1_linear_1504_67552" x1="19.7351" y1="-1.55568" x2="78.2229" y2="27.5922" gradientUnits="userSpaceOnUse">
<stop offset="0.188941" stop-color="#E7F0FF" stop-opacity="0.523483"/>
<stop offset="0.526042" stop-color="#88A4FF"/>
<stop offset="1" stop-color="#B4D2FF" stop-opacity="0.1"/>
</linearGradient>
<radialGradient id="paint2_radial_1504_67552" cx="0" cy="0" r="1" gradientUnits="userSpaceOnUse" gradientTransform="translate(20.0566 66.7059) rotate(-55.3263) scale(50.4911 78.9657)">
<stop stop-color="white"/>
<stop offset="1" stop-color="white" stop-opacity="0"/>
</radialGradient>
</defs>
</svg>
