<svg width="16" height="16" viewBox="0 0 16 16" fill="none" xmlns="http://www.w3.org/2000/svg">
<path d="M12 8C14.2091 8 16 9.79086 16 12V12C16 14.2091 14.2091 16 12 16L8 16L8 8L12 8Z" fill="#FABE00"/>
<path d="M0 7H8V12C8 15 10.058 15.1369 12 16H5C2.23858 16 0 13.7614 0 11V7Z" fill="#13C2C2"/>
<path d="M10 -1.12401e-07C12.2091 -2.04124e-09 14 1.79086 14 4V4C14 6.20914 12.2091 8 10 8L4 8C1 8 0.863093 9.05804 -4.80825e-07 11L-2.62268e-07 6C-1.17422e-07 2.68629 2.68629 -4.77763e-07 6 -3.12224e-07L10 -1.12401e-07Z" fill="#1869ED"/>
</svg>
