<svg width="50" height="42" viewBox="0 0 50 42" fill="none" xmlns="http://www.w3.org/2000/svg">
<path d="M22.9508 5.12295C22.9508 2.29362 25.2444 0 28.0738 0H44.877C47.7064 0 50 2.29362 50 5.12295V13.9344C50 16.7638 47.7064 19.0574 44.877 19.0574H28.0738C25.2444 19.0574 22.9508 16.7638 22.9508 13.9344V5.12295Z" fill="#003CFF"/>
<g filter="url(#filter0_b_1504_67580)">
<path d="M36.8852 23.1555C36.8852 33.3411 28.6282 41.5981 18.4426 41.5981C8.25704 41.5981 0 33.3411 0 23.1555C0 12.9699 8.25704 4.71289 18.4426 4.71289C28.6282 4.71289 36.8852 12.9699 36.8852 23.1555Z" fill="url(#paint0_linear_1504_67580)" fill-opacity="0.3"/>
</g>
<g filter="url(#filter1_b_1504_67580)">
<path fill-rule="evenodd" clip-rule="evenodd" d="M18.4426 41.4957C28.5716 41.4957 36.7828 33.2845 36.7828 23.1555C36.7828 13.0265 28.5716 4.81535 18.4426 4.81535C8.31363 4.81535 0.102459 13.0265 0.102459 23.1555C0.102459 33.2845 8.31363 41.4957 18.4426 41.4957ZM18.4426 41.5981C28.6282 41.5981 36.8852 33.3411 36.8852 23.1555C36.8852 12.9699 28.6282 4.71289 18.4426 4.71289C8.25704 4.71289 0 12.9699 0 23.1555C0 33.3411 8.25704 41.5981 18.4426 41.5981Z" fill="url(#paint1_linear_1504_67580)"/>
<path fill-rule="evenodd" clip-rule="evenodd" d="M18.4426 41.4957C28.5716 41.4957 36.7828 33.2845 36.7828 23.1555C36.7828 13.0265 28.5716 4.81535 18.4426 4.81535C8.31363 4.81535 0.102459 13.0265 0.102459 23.1555C0.102459 33.2845 8.31363 41.4957 18.4426 41.4957ZM18.4426 41.5981C28.6282 41.5981 36.8852 33.3411 36.8852 23.1555C36.8852 12.9699 28.6282 4.71289 18.4426 4.71289C8.25704 4.71289 0 12.9699 0 23.1555C0 33.3411 8.25704 41.5981 18.4426 41.5981Z" fill="url(#paint2_radial_1504_67580)"/>
</g>
<ellipse cx="11.6803" cy="19.057" rx="2.04918" ry="2.04918" fill="white"/>
<ellipse cx="25" cy="19.057" rx="2.04918" ry="2.04918" fill="white"/>
<path d="M23.3954 26.4034C23.9937 26.7029 24.2437 27.4393 23.8438 27.9757C23.3128 28.6879 22.6461 29.2935 21.8782 29.7554C20.7625 30.4264 19.479 30.7663 18.1775 30.7354C16.8759 30.7045 15.6099 30.3042 14.5273 29.581C13.7821 29.0833 13.145 28.4468 12.6483 27.7102C12.2743 27.1554 12.559 26.4317 13.1708 26.1609C13.7826 25.8901 14.4874 26.1819 14.913 26.6982C15.1876 27.0312 15.5106 27.3241 15.8731 27.5662C16.5736 28.0341 17.3927 28.2931 18.2349 28.3131C19.0771 28.3331 19.9076 28.1132 20.6295 27.679C21.003 27.4543 21.3396 27.1771 21.6296 26.8575C22.0792 26.362 22.7971 26.1039 23.3954 26.4034Z" fill="white"/>
<defs>
<filter id="filter0_b_1504_67580" x="-30" y="-25.2871" width="96.8853" height="96.8848" filterUnits="userSpaceOnUse" color-interpolation-filters="sRGB">
<feFlood flood-opacity="0" result="BackgroundImageFix"/>
<feGaussianBlur in="BackgroundImageFix" stdDeviation="15"/>
<feComposite in2="SourceAlpha" operator="in" result="effect1_backgroundBlur_1504_67580"/>
<feBlend mode="normal" in="SourceGraphic" in2="effect1_backgroundBlur_1504_67580" result="shape"/>
</filter>
<filter id="filter1_b_1504_67580" x="-30" y="-25.2871" width="96.8853" height="96.8848" filterUnits="userSpaceOnUse" color-interpolation-filters="sRGB">
<feFlood flood-opacity="0" result="BackgroundImageFix"/>
<feGaussianBlur in="BackgroundImageFix" stdDeviation="15"/>
<feComposite in2="SourceAlpha" operator="in" result="effect1_backgroundBlur_1504_67580"/>
<feBlend mode="normal" in="SourceGraphic" in2="effect1_backgroundBlur_1504_67580" result="shape"/>
</filter>
<linearGradient id="paint0_linear_1504_67580" x1="3.94713" y1="8.116" x2="43.7599" y2="28.7305" gradientUnits="userSpaceOnUse">
<stop stop-color="#5A81FF" stop-opacity="0.9"/>
<stop offset="0.447036" stop-color="#567DFF" stop-opacity="0.955296"/>
<stop offset="1" stop-color="#4E78FF" stop-opacity="0.9"/>
</linearGradient>
<linearGradient id="paint1_linear_1504_67580" x1="5.30821" y1="3.39556" x2="39.8819" y2="23.5819" gradientUnits="userSpaceOnUse">
<stop offset="0.188941" stop-color="#E7F0FF" stop-opacity="0.523483"/>
<stop offset="0.526042" stop-color="#88A4FF"/>
<stop offset="1" stop-color="#B4D2FF" stop-opacity="0.1"/>
</linearGradient>
<radialGradient id="paint2_radial_1504_67580" cx="0" cy="0" r="1" gradientUnits="userSpaceOnUse" gradientTransform="translate(5.51237 40.3906) rotate(-50.9773) scale(28.967 47.3644)">
<stop stop-color="white"/>
<stop offset="1" stop-color="white" stop-opacity="0"/>
</radialGradient>
</defs>
</svg>
