<svg width="51" height="47" viewBox="0 0 51 47" fill="none" xmlns="http://www.w3.org/2000/svg">
<path d="M11.2544 3.8127C11.2544 1.70701 12.9614 0 15.0671 0H47.1873C49.293 0 51 1.70701 51 3.8127V22.4194C51 24.5251 49.293 26.2321 47.1873 26.2321H15.0671C12.9614 26.2321 11.2544 24.5251 11.2544 22.4194V3.8127Z" fill="#003CFF"/>
<g filter="url(#filter0_b_1504_67584)">
<path d="M1.65139 16.7293L16.4213 3.8125L31.8426 17.299L45.6833 5.19484C46.2996 4.65581 47.2639 5.09353 47.2639 5.91235V31.591C47.2639 32.1409 47.0265 32.664 46.6125 33.026L31.8426 45.9429L16.4213 32.4564L2.58066 44.5605C1.9643 45.0996 1 44.6618 1 43.843V18.1643C1 17.6144 1.23745 17.0913 1.65139 16.7293Z" fill="url(#paint0_linear_1504_67584)" fill-opacity="0.3"/>
</g>
<g filter="url(#filter1_b_1504_67584)">
<path fill-rule="evenodd" clip-rule="evenodd" d="M16.4213 3.7334L31.8426 17.2199L45.644 5.15004C46.2989 4.57732 47.3235 5.0424 47.3235 5.91239V31.5911C47.3235 32.1582 47.0786 32.6976 46.6518 33.0709L31.8426 46.0221L16.4213 32.5356L2.61988 44.6054C1.96499 45.1781 0.94043 44.7131 0.94043 43.8431V18.1644C0.94043 17.5973 1.1853 17.0578 1.61217 16.6845L16.4213 3.7334ZM16.4809 32.4294L31.783 45.8117V17.3261L16.4809 3.94378V32.4294ZM16.3617 3.94378V32.4294L2.54144 44.5157C1.96361 45.0211 1.05958 44.6107 1.05958 43.8431V18.1644C1.05958 17.6317 1.28961 17.1249 1.69061 16.7742L16.3617 3.94378ZM31.9022 17.3261V45.8117L46.5733 32.9812C46.9743 32.6306 47.2043 32.1238 47.2043 31.5911V5.91239C47.2043 5.14475 46.3003 4.73439 45.7225 5.23973L31.9022 17.3261Z" fill="url(#paint1_linear_1504_67584)"/>
<path fill-rule="evenodd" clip-rule="evenodd" d="M16.4213 3.7334L31.8426 17.2199L45.644 5.15004C46.2989 4.57732 47.3235 5.0424 47.3235 5.91239V31.5911C47.3235 32.1582 47.0786 32.6976 46.6518 33.0709L31.8426 46.0221L16.4213 32.5356L2.61988 44.6054C1.96499 45.1781 0.94043 44.7131 0.94043 43.8431V18.1644C0.94043 17.5973 1.1853 17.0578 1.61217 16.6845L16.4213 3.7334ZM16.4809 32.4294L31.783 45.8117V17.3261L16.4809 3.94378V32.4294ZM16.3617 3.94378V32.4294L2.54144 44.5157C1.96361 45.0211 1.05958 44.6107 1.05958 43.8431V18.1644C1.05958 17.6317 1.28961 17.1249 1.69061 16.7742L16.3617 3.94378ZM31.9022 17.3261V45.8117L46.5733 32.9812C46.9743 32.6306 47.2043 32.1238 47.2043 31.5911V5.91239C47.2043 5.14475 46.3003 4.73439 45.7225 5.23973L31.9022 17.3261Z" fill="url(#paint2_radial_1504_67584)"/>
</g>
<rect x="35.1237" y="21.4844" width="11.2444" height="0.892413" rx="0.446207" transform="rotate(-41 35.1237 21.4844)" fill="white"/>
<rect x="35.2024" y="25.5605" width="11.2444" height="0.892413" rx="0.446206" transform="rotate(-41 35.2024 25.5605)" fill="white"/>
<defs>
<filter id="filter0_b_1504_67584" x="-29" y="-26.1875" width="106.264" height="102.131" filterUnits="userSpaceOnUse" color-interpolation-filters="sRGB">
<feFlood flood-opacity="0" result="BackgroundImageFix"/>
<feGaussianBlur in="BackgroundImageFix" stdDeviation="15"/>
<feComposite in2="SourceAlpha" operator="in" result="effect1_backgroundBlur_1504_67584"/>
<feBlend mode="normal" in="SourceGraphic" in2="effect1_backgroundBlur_1504_67584" result="shape"/>
</filter>
<filter id="filter1_b_1504_67584" x="-29.0596" y="-26.2666" width="106.383" height="102.289" filterUnits="userSpaceOnUse" color-interpolation-filters="sRGB">
<feFlood flood-opacity="0" result="BackgroundImageFix"/>
<feGaussianBlur in="BackgroundImageFix" stdDeviation="15"/>
<feComposite in2="SourceAlpha" operator="in" result="effect1_backgroundBlur_1504_67584"/>
<feBlend mode="normal" in="SourceGraphic" in2="effect1_backgroundBlur_1504_67584" result="shape"/>
</filter>
<linearGradient id="paint0_linear_1504_67584" x1="5.95075" y1="7.69953" x2="53.8039" y2="34.9083" gradientUnits="userSpaceOnUse">
<stop stop-color="#5A81FF" stop-opacity="0.9"/>
<stop offset="0.447036" stop-color="#567DFF" stop-opacity="0.955296"/>
<stop offset="1" stop-color="#4E78FF" stop-opacity="0.9"/>
</linearGradient>
<linearGradient id="paint1_linear_1504_67584" x1="7.61548" y1="2.22309" x2="48.958" y2="28.6986" gradientUnits="userSpaceOnUse">
<stop offset="0.188941" stop-color="#E7F0FF" stop-opacity="0.523483"/>
<stop offset="0.526042" stop-color="#88A4FF"/>
<stop offset="1" stop-color="#B4D2FF" stop-opacity="0.1"/>
</linearGradient>
<radialGradient id="paint2_radial_1504_67584" cx="0" cy="0" r="1" gradientUnits="userSpaceOnUse" gradientTransform="translate(7.87222 44.6376) rotate(-48.3659) scale(34.521 57.2994)">
<stop stop-color="white"/>
<stop offset="1" stop-color="white" stop-opacity="0"/>
</radialGradient>
</defs>
</svg>
