<svg width="15" height="21" viewBox="0 0 15 21" fill="none" xmlns="http://www.w3.org/2000/svg">
<path d="M0 5H6V21H0V5Z" fill="#13C2C2"/>
<path d="M14.0237 13C14.0237 14.6569 12.6805 16 11.0237 16L8.02368 16L8.02368 10L14.0237 10L14.0237 13Z" fill="#FABE00"/>
<path d="M10 -1.12401e-07C12.2091 -2.04124e-09 14 1.79086 14 4V4C14 6.20914 12.2091 8 10 8L8 8C5 8 0.863093 9.05804 -4.80825e-07 11L-2.62268e-07 6C-1.17422e-07 2.68629 2.68629 -4.77763e-07 6 -3.12224e-07L10 -1.12401e-07Z" fill="#1869ED"/>
</svg>
