<svg width="70" height="55" viewBox="0 0 70 55" fill="none" xmlns="http://www.w3.org/2000/svg">
<path d="M70 27.7865C70 37.0784 62.4673 44.611 53.1754 44.611C43.8834 44.611 36.3508 37.0784 36.3508 27.7865C36.3508 18.4945 43.8834 10.9619 53.1754 10.9619C62.4673 10.9619 70 18.4945 70 27.7865Z" fill="#003CFF"/>
<g filter="url(#filter0_b_1504_67592)">
<path d="M10.3925 26.7901L2.73111 7.69743C1.73013 5.20294 4.25781 2.74991 6.72118 3.82519L55.5869 25.1555C57.9902 26.2045 57.9902 29.6133 55.5869 30.6623L6.72118 51.9926C4.25781 53.0679 1.73014 50.6148 2.73111 48.1203L10.3925 29.0277C10.6806 28.3097 10.6806 27.5081 10.3925 26.7901Z" fill="url(#paint0_linear_1504_67592)" fill-opacity="0.3"/>
</g>
<g filter="url(#filter1_b_1504_67592)">
<path fill-rule="evenodd" clip-rule="evenodd" d="M6.69113 3.89416C4.28935 2.84576 1.82486 5.23746 2.80081 7.66959L10.4622 26.7622C10.7575 27.4982 10.7575 28.3198 10.4622 29.0558L2.80082 48.1484C1.82487 50.5806 4.28935 52.9723 6.69113 51.9239L55.5569 30.5936C57.9 29.5708 57.9 26.2472 55.5569 25.2245L6.69113 3.89416ZM2.6614 7.72553C1.63541 5.16868 4.22627 2.65433 6.75123 3.75649L55.617 25.0868C58.0803 26.162 58.0803 29.656 55.617 30.7313L6.75123 52.0616C4.22627 53.1637 1.63541 50.6494 2.66141 48.0925L10.3228 28.9999C10.6037 28.2998 10.6037 27.5183 10.3228 26.8182L2.6614 7.72553Z" fill="url(#paint1_linear_1504_67592)" fill-opacity="0.3"/>
</g>
<defs>
<filter id="filter0_b_1504_67592" x="-27.4934" y="-26.4346" width="114.883" height="108.687" filterUnits="userSpaceOnUse" color-interpolation-filters="sRGB">
<feFlood flood-opacity="0" result="BackgroundImageFix"/>
<feGaussianBlur in="BackgroundImageFix" stdDeviation="15"/>
<feComposite in2="SourceAlpha" operator="in" result="effect1_backgroundBlur_1504_67592"/>
<feBlend mode="normal" in="SourceGraphic" in2="effect1_backgroundBlur_1504_67592" result="shape"/>
</filter>
<filter id="filter1_b_1504_67592" x="-27.5687" y="-26.5098" width="115.033" height="108.838" filterUnits="userSpaceOnUse" color-interpolation-filters="sRGB">
<feFlood flood-opacity="0" result="BackgroundImageFix"/>
<feGaussianBlur in="BackgroundImageFix" stdDeviation="15"/>
<feComposite in2="SourceAlpha" operator="in" result="effect1_backgroundBlur_1504_67592"/>
<feBlend mode="normal" in="SourceGraphic" in2="effect1_backgroundBlur_1504_67592" result="shape"/>
</filter>
<linearGradient id="paint0_linear_1504_67592" x1="8.37965" y1="8.05738" x2="64.4114" y2="40.762" gradientUnits="userSpaceOnUse">
<stop stop-color="#5A81FF" stop-opacity="0.9"/>
<stop offset="0.447036" stop-color="#567DFF" stop-opacity="0.955296"/>
<stop offset="1" stop-color="#4E78FF" stop-opacity="0.9"/>
</linearGradient>
<linearGradient id="paint1_linear_1504_67592" x1="8.32043" y1="7.99609" x2="64.5158" y2="40.7847" gradientUnits="userSpaceOnUse">
<stop stop-color="#5A81FF" stop-opacity="0.9"/>
<stop offset="0.447036" stop-color="#567DFF" stop-opacity="0.955296"/>
<stop offset="1" stop-color="#4E78FF" stop-opacity="0.9"/>
</linearGradient>
</defs>
</svg>
