<svg width="51" height="53" viewBox="0 0 51 53" fill="none" xmlns="http://www.w3.org/2000/svg">
<path d="M7.69598 31.6133C8.21554 30.0974 9.64094 29.0791 11.2434 29.0791H39.3964C40.9778 29.0791 42.3893 30.0712 42.9248 31.5593L48.6935 47.5887C49.5729 50.0324 47.7621 52.6085 45.165 52.6085H5.74945C3.17653 52.6085 1.36782 50.0766 2.20203 47.6427L7.69598 31.6133Z" fill="#003CFF"/>
<g filter="url(#filter0_b_1504_67561)">
<path fill-rule="evenodd" clip-rule="evenodd" d="M16.5499 23.7395L27.5546 44.5439C28.4934 46.3187 31.0357 46.3187 31.9744 44.5439L42.9693 23.7566C44.279 21.5045 45.0291 18.8869 45.0291 16.094C45.0291 7.66363 38.1949 0.829482 29.7646 0.829482C21.3342 0.829481 14.5 7.66363 14.5 16.094C14.5 18.4511 15.0343 20.6834 15.9883 22.6765C15.9884 22.6766 15.9883 22.6768 15.9881 22.6768C15.9879 22.6768 15.9878 22.677 15.9879 22.6771L15.996 22.6924C16.1674 23.0494 16.3522 23.3986 16.5499 23.7395Z" fill="url(#paint0_linear_1504_67561)" fill-opacity="0.3"/>
</g>
<g filter="url(#filter1_b_1504_67561)">
<path fill-rule="evenodd" clip-rule="evenodd" d="M16.6592 23.6789L27.6651 44.4855C28.557 46.1715 30.9721 46.1715 31.8639 44.4854L42.86 23.6959L42.8613 23.6938C44.1601 21.4603 44.9041 18.8642 44.9041 16.094C44.9041 7.73267 38.1259 0.954482 29.7646 0.954482C21.4032 0.954481 14.625 7.73266 14.625 16.094C14.625 18.432 15.1549 20.6459 16.1011 22.6225C16.1023 22.625 16.1034 22.6276 16.1044 22.6301L16.1076 22.6361L16.1087 22.6383C16.2786 22.9923 16.462 23.3387 16.658 23.6768L16.6592 23.6789ZM16.0429 22.7893C16.0429 22.7893 16.0429 22.7893 16.0429 22.7893C16.0272 22.7571 16.0115 22.7248 15.996 22.6924L15.9879 22.6771C15.9878 22.677 15.9879 22.6768 15.9881 22.6768C15.9883 22.6768 15.9884 22.6766 15.9883 22.6765C15.9883 22.6763 15.9882 22.6762 15.9881 22.676C15.9702 22.6386 15.9525 22.6011 15.9349 22.5636C15.9349 22.5636 15.9349 22.5636 15.9349 22.5636C15.0144 20.5993 14.5 18.4067 14.5 16.094C14.5 7.66363 21.3342 0.829481 29.7646 0.829482C38.1949 0.829482 45.0291 7.66363 45.0291 16.094C45.0291 18.8869 44.279 21.5045 42.9693 23.7566L31.9744 44.5439C31.0357 46.3187 28.4934 46.3187 27.5546 44.5439L16.5499 23.7395C16.3701 23.4295 16.201 23.1126 16.0429 22.7893Z" fill="url(#paint1_linear_1504_67561)"/>
<path fill-rule="evenodd" clip-rule="evenodd" d="M16.6592 23.6789L27.6651 44.4855C28.557 46.1715 30.9721 46.1715 31.8639 44.4854L42.86 23.6959L42.8613 23.6938C44.1601 21.4603 44.9041 18.8642 44.9041 16.094C44.9041 7.73267 38.1259 0.954482 29.7646 0.954482C21.4032 0.954481 14.625 7.73266 14.625 16.094C14.625 18.432 15.1549 20.6459 16.1011 22.6225C16.1023 22.625 16.1034 22.6276 16.1044 22.6301L16.1076 22.6361L16.1087 22.6383C16.2786 22.9923 16.462 23.3387 16.658 23.6768L16.6592 23.6789ZM16.0429 22.7893C16.0429 22.7893 16.0429 22.7893 16.0429 22.7893C16.0272 22.7571 16.0115 22.7248 15.996 22.6924L15.9879 22.6771C15.9878 22.677 15.9879 22.6768 15.9881 22.6768C15.9883 22.6768 15.9884 22.6766 15.9883 22.6765C15.9883 22.6763 15.9882 22.6762 15.9881 22.676C15.9702 22.6386 15.9525 22.6011 15.9349 22.5636C15.9349 22.5636 15.9349 22.5636 15.9349 22.5636C15.0144 20.5993 14.5 18.4067 14.5 16.094C14.5 7.66363 21.3342 0.829481 29.7646 0.829482C38.1949 0.829482 45.0291 7.66363 45.0291 16.094C45.0291 18.8869 44.279 21.5045 42.9693 23.7566L31.9744 44.5439C31.0357 46.3187 28.4934 46.3187 27.5546 44.5439L16.5499 23.7395C16.3701 23.4295 16.201 23.1126 16.0429 22.7893Z" fill="url(#paint2_radial_1504_67561)"/>
</g>
<ellipse cx="29.7645" cy="16.1519" rx="5.72419" ry="5.72419" fill="white"/>
<defs>
<filter id="filter0_b_1504_67561" x="-15.5" y="-29.1709" width="90.5291" height="105.046" filterUnits="userSpaceOnUse" color-interpolation-filters="sRGB">
<feFlood flood-opacity="0" result="BackgroundImageFix"/>
<feGaussianBlur in="BackgroundImageFix" stdDeviation="15"/>
<feComposite in2="SourceAlpha" operator="in" result="effect1_backgroundBlur_1504_67561"/>
<feBlend mode="normal" in="SourceGraphic" in2="effect1_backgroundBlur_1504_67561" result="shape"/>
</filter>
<filter id="filter1_b_1504_67561" x="-15.5" y="-29.1709" width="90.5291" height="105.046" filterUnits="userSpaceOnUse" color-interpolation-filters="sRGB">
<feFlood flood-opacity="0" result="BackgroundImageFix"/>
<feGaussianBlur in="BackgroundImageFix" stdDeviation="15"/>
<feComposite in2="SourceAlpha" operator="in" result="effect1_backgroundBlur_1504_67561"/>
<feBlend mode="normal" in="SourceGraphic" in2="effect1_backgroundBlur_1504_67561" result="shape"/>
</filter>
<linearGradient id="paint0_linear_1504_67561" x1="41.7621" y1="41.719" x2="4.55721" y2="28.6629" gradientUnits="userSpaceOnUse">
<stop stop-color="#5A81FF" stop-opacity="0.9"/>
<stop offset="0.447036" stop-color="#567DFF" stop-opacity="0.955296"/>
<stop offset="1" stop-color="#4E78FF" stop-opacity="0.9"/>
</linearGradient>
<linearGradient id="paint1_linear_1504_67561" x1="40.6356" y1="47.4838" x2="7.45952" y2="34.3558" gradientUnits="userSpaceOnUse">
<stop offset="0.188941" stop-color="#E7F0FF" stop-opacity="0.523483"/>
<stop offset="0.526042" stop-color="#88A4FF"/>
<stop offset="1" stop-color="#B4D2FF" stop-opacity="0.1"/>
</linearGradient>
<radialGradient id="paint2_radial_1504_67561" cx="0" cy="0" r="1" gradientUnits="userSpaceOnUse" gradientTransform="translate(40.4666 2.30419) rotate(118.778) scale(31.356 44.2277)">
<stop stop-color="white"/>
<stop offset="1" stop-color="white" stop-opacity="0"/>
</radialGradient>
</defs>
</svg>
