<svg width="26" height="16" viewBox="0 0 26 16" fill="none" xmlns="http://www.w3.org/2000/svg">
<path d="M17.9036 0.76515C20.9036 -0.956394 25.9036 0.76515 25.9036 0.76515L25.9036 7.76515C25.9036 7.76515 13.4207 5.84467 11.1279 9.5312C11.0446 9.68191 10.9999 9.76511 10.9999 9.76511C11.0382 9.68473 11.0809 9.60679 11.1279 9.5312C11.8243 8.27228 15.2243 2.30263 17.9036 0.76515Z" fill="#13C2C2"/>
<path d="M8 13C5 14.7215 -3.34458e-08 13 -3.34458e-08 13L-3.39426e-07 5.99999C-3.39426e-07 5.99999 12.4828 7.92047 14.7756 4.23394C14.859 4.08323 14.9036 4.00003 14.9036 4.00003C14.8654 4.0804 14.8227 4.15835 14.7756 4.23394C14.0792 5.49286 10.6793 11.4625 8 13Z" fill="#1869ED"/>
<path d="M12 12.9308C12 11.2739 13.3431 9.93076 15 9.93076H18V15.9308H12V12.9308Z" fill="#FABE00"/>
</svg>
