<svg width="41" height="33" viewBox="0 0 41 33" fill="none" xmlns="http://www.w3.org/2000/svg">
<path d="M18.6819 11.8636C18.6819 8.3491 21.531 5.5 25.0455 5.5H34.1364C37.651 5.5 40.5001 8.3491 40.5001 11.8636V20.9545C40.5001 24.4691 37.651 27.3182 34.1364 27.3182H25.0455C21.531 27.3182 18.6819 24.4691 18.6819 20.9545V11.8636Z" fill="#003CFF"/>
<g filter="url(#filter0_b_1504_67596)">
<path d="M0.5 6.40953C0.5 2.89499 3.3491 0.0458984 6.86364 0.0458984H26.8636C30.3782 0.0458984 33.2273 2.895 33.2273 6.40953V26.4095C33.2273 29.9241 30.3782 32.7732 26.8636 32.7732H6.86364C3.3491 32.7732 0.5 29.9241 0.5 26.4095V6.40953Z" fill="url(#paint0_linear_1504_67596)" fill-opacity="0.3"/>
</g>
<g filter="url(#filter1_b_1504_67596)">
<path fill-rule="evenodd" clip-rule="evenodd" d="M26.8636 0.136808H6.86364C3.39931 0.136808 0.590909 2.9452 0.590909 6.40953V26.4095C0.590909 29.8739 3.3993 32.6823 6.86364 32.6823H26.8636C30.328 32.6823 33.1364 29.8739 33.1364 26.4095V6.40953C33.1364 2.9452 30.328 0.136808 26.8636 0.136808ZM6.86364 0.0458984C3.3491 0.0458984 0.5 2.89499 0.5 6.40953V26.4095C0.5 29.9241 3.3491 32.7732 6.86364 32.7732H26.8636C30.3782 32.7732 33.2273 29.9241 33.2273 26.4095V6.40953C33.2273 2.895 30.3782 0.0458984 26.8636 0.0458984H6.86364Z" fill="url(#paint1_linear_1504_67596)" fill-opacity="0.3"/>
</g>
<rect x="7.04541" y="22.2275" width="7.27273" height="1.81818" rx="0.909091" fill="white"/>
<rect x="19.4092" y="20.5918" width="7.27273" height="1.81818" rx="0.909091" fill="white"/>
<rect x="19.4092" y="23.3193" width="7.27273" height="1.81818" rx="0.909091" fill="white"/>
<rect x="19.4092" y="9.31934" width="7.27273" height="1.81818" rx="0.909091" fill="white"/>
<rect x="23.9546" y="6.5918" width="7.27273" height="1.81818" rx="0.909091" transform="rotate(90 23.9546 6.5918)" fill="white"/>
<rect x="8.75342" y="7.01367" width="7.27273" height="1.81818" rx="0.909091" transform="rotate(45 8.75342 7.01367)" fill="white"/>
<rect x="13.896" y="8.2998" width="7.27273" height="1.81818" rx="0.909091" transform="rotate(135 13.896 8.2998)" fill="white"/>
<defs>
<filter id="filter0_b_1504_67596" x="-29.5" y="-29.9541" width="92.7273" height="92.7275" filterUnits="userSpaceOnUse" color-interpolation-filters="sRGB">
<feFlood flood-opacity="0" result="BackgroundImageFix"/>
<feGaussianBlur in="BackgroundImageFix" stdDeviation="15"/>
<feComposite in2="SourceAlpha" operator="in" result="effect1_backgroundBlur_1504_67596"/>
<feBlend mode="normal" in="SourceGraphic" in2="effect1_backgroundBlur_1504_67596" result="shape"/>
</filter>
<filter id="filter1_b_1504_67596" x="-29.5" y="-29.9541" width="92.7273" height="92.7275" filterUnits="userSpaceOnUse" color-interpolation-filters="sRGB">
<feFlood flood-opacity="0" result="BackgroundImageFix"/>
<feGaussianBlur in="BackgroundImageFix" stdDeviation="15"/>
<feComposite in2="SourceAlpha" operator="in" result="effect1_backgroundBlur_1504_67596"/>
<feBlend mode="normal" in="SourceGraphic" in2="effect1_backgroundBlur_1504_67596" result="shape"/>
</filter>
<linearGradient id="paint0_linear_1504_67596" x1="4.00218" y1="3.06538" x2="39.3269" y2="21.3561" gradientUnits="userSpaceOnUse">
<stop stop-color="#5A81FF" stop-opacity="0.9"/>
<stop offset="0.447036" stop-color="#567DFF" stop-opacity="0.955296"/>
<stop offset="1" stop-color="#4E78FF" stop-opacity="0.9"/>
</linearGradient>
<linearGradient id="paint1_linear_1504_67596" x1="4.00218" y1="3.06538" x2="39.3269" y2="21.3561" gradientUnits="userSpaceOnUse">
<stop stop-color="#5A81FF" stop-opacity="0.9"/>
<stop offset="0.447036" stop-color="#567DFF" stop-opacity="0.955296"/>
<stop offset="1" stop-color="#4E78FF" stop-opacity="0.9"/>
</linearGradient>
</defs>
</svg>
