<svg width="20" height="20" viewBox="0 0 20 20" fill="none" xmlns="http://www.w3.org/2000/svg">
<path d="M6.57933 1.88855C6.57933 1.88855 0.754309 5.81102 0.076348 8.39153C-0.601613 10.972 3.45859 14.9555 3.45859 14.9555C2.28214 11.7114 10.4473 5.75654 10.4473 5.75654L6.57933 1.88855Z" fill="#1869ED"/>
<path d="M17.834 6.57933C17.834 6.57933 13.9115 0.754309 11.331 0.0763479C8.75053 -0.601613 4.76708 3.45859 4.76708 3.45859C8.01117 2.28214 13.966 10.4473 13.966 10.4473L17.834 6.57933Z" fill="#FABE00"/>
<path d="M13.4207 17.9608C13.4207 17.9608 19.2457 14.0383 19.9237 11.4578C20.6016 8.87728 16.5414 4.89383 16.5414 4.89383C17.7179 8.13793 9.55268 14.0928 9.55268 14.0928L13.4207 17.9608Z" fill="#13C2C2"/>
<path d="M2.28567 13.3822C2.28567 13.3822 6.20814 19.2072 8.78865 19.8852C11.3692 20.5631 15.3526 16.5029 15.3526 16.5029C12.1085 17.6794 6.15366 9.51422 6.15366 9.51422L2.28567 13.3822Z" fill="#6BAEFF"/>
<path d="M3.45859 14.9555C3.45859 14.9555 -0.601613 10.972 0.076348 8.39153C0.28691 7.59007 0.993998 6.65917 1.86883 5.75654L6.4026 9.24932C4.55118 11.122 2.88169 13.3647 3.45859 14.9555Z" fill="#1869ED"/>
</svg>
