<svg width="50" height="50" viewBox="0 0 50 50" fill="none" xmlns="http://www.w3.org/2000/svg">
<path d="M0 12.5C0 10.4289 1.67893 8.75 3.75 8.75H28.5C30.5711 8.75 32.25 10.4289 32.25 12.5V46.25C32.25 48.3211 30.5711 50 28.5 50H3.75C1.67893 50 0 48.3211 0 46.25V12.5Z" fill="#003CFF"/>
<g filter="url(#filter0_b_1504_67588)">
<path d="M48.2859 1.71412C50.5714 3.99961 50.5714 7.70513 48.2859 9.99062L44.1636 14.1129L26.6717 31.6048C25.7342 32.5423 24.5595 33.2074 23.2732 33.529L16.5693 35.205C15.4977 35.4729 14.5271 34.5023 14.795 33.4307L16.471 26.7268C16.7926 25.4405 17.4577 24.2658 18.3952 23.3283L35.8871 5.8364L40.0094 1.71412C42.2949 -0.571374 46.0004 -0.571374 48.2859 1.71412Z" fill="url(#paint0_linear_1504_67588)" fill-opacity="0.3"/>
</g>
<g filter="url(#filter1_b_1504_67588)">
<path fill-rule="evenodd" clip-rule="evenodd" d="M48.1975 9.90224C50.4342 7.66556 50.4342 4.03919 48.1975 1.80251C45.9608 -0.43417 42.3344 -0.43417 40.0978 1.80251L18.4836 23.4167C17.5621 24.3382 16.9083 25.4928 16.5923 26.7572L14.9163 33.461C14.6713 34.441 15.559 35.3287 16.539 35.0837L23.2429 33.4077C24.5072 33.0917 25.6618 32.4379 26.5833 31.5164L48.1975 9.90224ZM48.2859 9.99062C50.5714 7.70513 50.5714 3.99961 48.2859 1.71412C46.0004 -0.571374 42.2949 -0.571374 40.0094 1.71412L18.3952 23.3283C17.4577 24.2658 16.7926 25.4405 16.471 26.7268L14.795 33.4307C14.5271 34.5023 15.4977 35.4729 16.5693 35.205L23.2732 33.529C24.5595 33.2074 25.7342 32.5423 26.6717 31.6048L48.2859 9.99062Z" fill="url(#paint1_linear_1504_67588)"/>
<path fill-rule="evenodd" clip-rule="evenodd" d="M48.1975 9.90224C50.4342 7.66556 50.4342 4.03919 48.1975 1.80251C45.9608 -0.43417 42.3344 -0.43417 40.0978 1.80251L18.4836 23.4167C17.5621 24.3382 16.9083 25.4928 16.5923 26.7572L14.9163 33.461C14.6713 34.441 15.559 35.3287 16.539 35.0837L23.2429 33.4077C24.5072 33.0917 25.6618 32.4379 26.5833 31.5164L48.1975 9.90224ZM48.2859 9.99062C50.5714 7.70513 50.5714 3.99961 48.2859 1.71412C46.0004 -0.571374 42.2949 -0.571374 40.0094 1.71412L18.3952 23.3283C17.4577 24.2658 16.7926 25.4405 16.471 26.7268L14.795 33.4307C14.5271 34.5023 15.4977 35.4729 16.5693 35.205L23.2732 33.529C24.5595 33.2074 25.7342 32.5423 26.6717 31.6048L48.2859 9.99062Z" fill="url(#paint2_radial_1504_67588)"/>
</g>
<path d="M18.3568 33.4483C17.2543 33.7339 16.2506 32.7301 16.5362 31.6276C16.826 30.5091 18.2215 30.129 19.0385 30.946C19.8555 31.763 19.4753 33.1585 18.3568 33.4483Z" fill="white"/>
<defs>
<filter id="filter0_b_1504_67588" x="-15.25" y="-30" width="95.25" height="95.25" filterUnits="userSpaceOnUse" color-interpolation-filters="sRGB">
<feFlood flood-opacity="0" result="BackgroundImageFix"/>
<feGaussianBlur in="BackgroundImageFix" stdDeviation="15"/>
<feComposite in2="SourceAlpha" operator="in" result="effect1_backgroundBlur_1504_67588"/>
<feBlend mode="normal" in="SourceGraphic" in2="effect1_backgroundBlur_1504_67588" result="shape"/>
</filter>
<filter id="filter1_b_1504_67588" x="-15.25" y="-30" width="95.25" height="95.25" filterUnits="userSpaceOnUse" color-interpolation-filters="sRGB">
<feFlood flood-opacity="0" result="BackgroundImageFix"/>
<feGaussianBlur in="BackgroundImageFix" stdDeviation="15"/>
<feComposite in2="SourceAlpha" operator="in" result="effect1_backgroundBlur_1504_67588"/>
<feBlend mode="normal" in="SourceGraphic" in2="effect1_backgroundBlur_1504_67588" result="shape"/>
</filter>
<linearGradient id="paint0_linear_1504_67588" x1="18.5221" y1="3.25223" x2="56.5699" y2="22.9529" gradientUnits="userSpaceOnUse">
<stop stop-color="#5A81FF" stop-opacity="0.9"/>
<stop offset="0.447036" stop-color="#567DFF" stop-opacity="0.955296"/>
<stop offset="1" stop-color="#4E78FF" stop-opacity="0.9"/>
</linearGradient>
<linearGradient id="paint1_linear_1504_67588" x1="19.8229" y1="-1.25893" x2="52.8638" y2="18.0325" gradientUnits="userSpaceOnUse">
<stop offset="0.188941" stop-color="#E7F0FF" stop-opacity="0.523483"/>
<stop offset="0.526042" stop-color="#88A4FF"/>
<stop offset="1" stop-color="#B4D2FF" stop-opacity="0.1"/>
</linearGradient>
<radialGradient id="paint2_radial_1504_67588" cx="0" cy="0" r="1" gradientUnits="userSpaceOnUse" gradientTransform="translate(20.018 34.096) rotate(-50.9773) scale(27.6828 45.2646)">
<stop stop-color="white"/>
<stop offset="1" stop-color="white" stop-opacity="0"/>
</radialGradient>
</defs>
</svg>
